<svg xmlns="http://www.w3.org/2000/svg" xmlns:xlink="http://www.w3.org/1999/xlink" width="190" zoomAndPan="magnify" viewBox="0 0 142.5 44.999999" height="60" preserveAspectRatio="xMidYMid meet" version="1.0"><defs><g/></defs><g fill="#ff711a" fill-opacity="1"><g transform="translate(1.664511, 29.716092)"><g><path d="M 2.984375 -17.296875 C 4.273438 -17.296875 5.238281 -16.445312 5.875 -14.75 L 9.015625 -6.140625 L 12.171875 -14.75 C 12.804688 -16.445312 13.769531 -17.296875 15.0625 -17.296875 C 15.695312 -17.296875 16.207031 -17.125 16.59375 -16.78125 C 16.976562 -16.445312 17.171875 -15.953125 17.171875 -15.296875 C 17.171875 -14.796875 17.054688 -14.253906 16.828125 -13.671875 L 12.25 -2 C 11.882812 -1.09375 11.460938 -0.472656 10.984375 -0.140625 C 10.515625 0.179688 9.859375 0.34375 9.015625 0.34375 C 8.179688 0.34375 7.523438 0.179688 7.046875 -0.140625 C 6.578125 -0.472656 6.160156 -1.09375 5.796875 -2 L 1.21875 -13.671875 C 0.988281 -14.253906 0.875 -14.796875 0.875 -15.296875 C 0.875 -15.953125 1.066406 -16.445312 1.453125 -16.78125 C 1.835938 -17.125 2.347656 -17.296875 2.984375 -17.296875 Z M 2.984375 -17.296875 "/></g></g></g><g fill="#ff711a" fill-opacity="1"><g transform="translate(17.909119, 29.716092)"><g><path d="M 2.46875 -21.5 C 2.46875 -22.226562 2.726562 -22.835938 3.25 -23.328125 C 3.769531 -23.828125 4.394531 -24.078125 5.125 -24.078125 C 5.84375 -24.078125 6.460938 -23.828125 6.984375 -23.328125 C 7.503906 -22.835938 7.765625 -22.226562 7.765625 -21.5 C 7.765625 -20.78125 7.503906 -20.171875 6.984375 -19.671875 C 6.460938 -19.171875 5.84375 -18.921875 5.125 -18.921875 C 4.394531 -18.921875 3.769531 -19.171875 3.25 -19.671875 C 2.726562 -20.171875 2.46875 -20.78125 2.46875 -21.5 Z M 2.71875 -12.921875 C 1.875 -12.921875 1.273438 -13.109375 0.921875 -13.484375 C 0.578125 -13.859375 0.40625 -14.335938 0.40625 -14.921875 C 0.40625 -15.515625 0.585938 -16.003906 0.953125 -16.390625 C 1.316406 -16.773438 1.914062 -16.96875 2.75 -16.96875 L 4.71875 -16.96875 C 5.78125 -16.96875 6.507812 -16.769531 6.90625 -16.375 C 7.300781 -15.976562 7.5 -15.28125 7.5 -14.28125 L 7.5 -2.203125 C 7.5 -1.734375 7.429688 -1.332031 7.296875 -1 C 7.160156 -0.675781 6.976562 -0.414062 6.75 -0.21875 C 6.519531 -0.03125 6.257812 0.109375 5.96875 0.203125 C 5.675781 0.296875 5.382812 0.34375 5.09375 0.34375 C 4.5 0.34375 3.953125 0.15625 3.453125 -0.21875 C 2.960938 -0.59375 2.71875 -1.253906 2.71875 -2.203125 Z M 2.71875 -12.921875 "/></g></g></g><g fill="#ff711a" fill-opacity="1"><g transform="translate(25.606988, 29.716092)"><g><path d="M 15.734375 -5.90625 C 15.734375 -5.269531 15.75 -4.742188 15.78125 -4.328125 C 15.820312 -3.910156 15.867188 -3.546875 15.921875 -3.234375 C 15.984375 -2.929688 16.03125 -2.660156 16.0625 -2.421875 C 16.09375 -2.179688 16.109375 -1.925781 16.109375 -1.65625 C 16.109375 -1.09375 15.921875 -0.617188 15.546875 -0.234375 C 15.179688 0.148438 14.632812 0.34375 13.90625 0.34375 C 13.132812 0.34375 12.515625 0.140625 12.046875 -0.265625 C 11.585938 -0.671875 11.222656 -1.25 10.953125 -2 C 10.429688 -1.28125 9.765625 -0.707031 8.953125 -0.28125 C 8.140625 0.132812 7.316406 0.34375 6.484375 0.34375 C 4.648438 0.34375 3.25 -0.125 2.28125 -1.0625 C 1.320312 -2 0.84375 -3.351562 0.84375 -5.125 C 0.84375 -6.144531 1.03125 -6.988281 1.40625 -7.65625 C 1.78125 -8.320312 2.289062 -8.84375 2.9375 -9.21875 C 3.582031 -9.601562 4.332031 -9.867188 5.1875 -10.015625 C 6.050781 -10.171875 6.957031 -10.25 7.90625 -10.25 C 8.425781 -10.25 8.945312 -10.222656 9.46875 -10.171875 C 9.988281 -10.128906 10.484375 -10.070312 10.953125 -10 L 10.953125 -11.265625 C 10.953125 -11.960938 10.753906 -12.46875 10.359375 -12.78125 C 9.960938 -13.101562 9.4375 -13.265625 8.78125 -13.265625 C 8.332031 -13.265625 7.945312 -13.175781 7.625 -13 C 7.3125 -12.832031 7.007812 -12.625 6.71875 -12.375 C 6.425781 -12.132812 6.109375 -11.914062 5.765625 -11.71875 C 5.429688 -11.53125 4.96875 -11.4375 4.375 -11.4375 C 3.65625 -11.4375 3.078125 -11.609375 2.640625 -11.953125 C 2.210938 -12.304688 2 -12.742188 2 -13.265625 C 2 -13.941406 2.195312 -14.535156 2.59375 -15.046875 C 2.988281 -15.554688 3.503906 -15.972656 4.140625 -16.296875 C 4.773438 -16.628906 5.472656 -16.878906 6.234375 -17.046875 C 7.003906 -17.210938 7.773438 -17.296875 8.546875 -17.296875 C 9.492188 -17.296875 10.398438 -17.175781 11.265625 -16.9375 C 12.140625 -16.707031 12.90625 -16.347656 13.5625 -15.859375 C 14.21875 -15.367188 14.742188 -14.753906 15.140625 -14.015625 C 15.535156 -13.285156 15.734375 -12.425781 15.734375 -11.4375 Z M 8.859375 -6.921875 C 7.878906 -6.921875 7.09375 -6.796875 6.5 -6.546875 C 5.914062 -6.296875 5.625 -5.8125 5.625 -5.09375 C 5.625 -4.613281 5.785156 -4.257812 6.109375 -4.03125 C 6.441406 -3.8125 6.90625 -3.703125 7.5 -3.703125 C 7.882812 -3.703125 8.28125 -3.765625 8.6875 -3.890625 C 9.09375 -4.015625 9.460938 -4.1875 9.796875 -4.40625 C 10.140625 -4.632812 10.414062 -4.898438 10.625 -5.203125 C 10.84375 -5.515625 10.953125 -5.847656 10.953125 -6.203125 C 10.953125 -6.429688 10.804688 -6.609375 10.515625 -6.734375 C 10.222656 -6.859375 9.671875 -6.921875 8.859375 -6.921875 Z M 8.859375 -6.921875 "/></g></g></g><g fill="#ff711a" fill-opacity="1"><g transform="translate(41.54847, 29.716092)"><g><path d="M 2.546875 -15.9375 C 2.546875 -16.394531 2.691406 -16.734375 2.984375 -16.953125 C 3.273438 -17.179688 3.613281 -17.296875 4 -17.296875 C 4.382812 -17.296875 4.71875 -17.179688 5 -16.953125 C 5.28125 -16.734375 5.421875 -16.394531 5.421875 -15.9375 L 5.421875 -14.21875 C 5.992188 -15.207031 6.703125 -15.96875 7.546875 -16.5 C 8.390625 -17.03125 9.4375 -17.296875 10.6875 -17.296875 C 11.613281 -17.296875 12.472656 -17.125 13.265625 -16.78125 C 14.054688 -16.445312 14.742188 -15.925781 15.328125 -15.21875 C 15.921875 -14.519531 16.382812 -13.632812 16.71875 -12.5625 C 17.0625 -11.488281 17.234375 -10.226562 17.234375 -8.78125 C 17.234375 -7.25 17.054688 -5.910156 16.703125 -4.765625 C 16.359375 -3.617188 15.875 -2.664062 15.25 -1.90625 C 14.625 -1.15625 13.878906 -0.59375 13.015625 -0.21875 C 12.160156 0.15625 11.222656 0.34375 10.203125 0.34375 C 8.265625 0.34375 6.671875 -0.40625 5.421875 -1.90625 L 5.421875 5.765625 C 5.421875 6.210938 5.28125 6.550781 5 6.78125 C 4.71875 7.007812 4.382812 7.125 4 7.125 C 3.613281 7.125 3.273438 7.007812 2.984375 6.78125 C 2.691406 6.550781 2.546875 6.210938 2.546875 5.765625 Z M 5.421875 -6.078125 C 5.421875 -5.535156 5.554688 -5.023438 5.828125 -4.546875 C 6.097656 -4.066406 6.441406 -3.648438 6.859375 -3.296875 C 7.285156 -2.953125 7.765625 -2.679688 8.296875 -2.484375 C 8.828125 -2.296875 9.34375 -2.203125 9.84375 -2.203125 C 11.21875 -2.203125 12.3125 -2.769531 13.125 -3.90625 C 13.9375 -5.050781 14.34375 -6.675781 14.34375 -8.78125 C 14.34375 -10.820312 13.945312 -12.328125 13.15625 -13.296875 C 12.363281 -14.265625 11.359375 -14.75 10.140625 -14.75 C 9.484375 -14.75 8.863281 -14.597656 8.28125 -14.296875 C 7.707031 -13.992188 7.210938 -13.535156 6.796875 -12.921875 C 6.378906 -12.316406 6.046875 -11.5625 5.796875 -10.65625 C 5.546875 -9.75 5.421875 -8.707031 5.421875 -7.53125 Z M 5.421875 -6.078125 "/></g></g></g><g fill="#ff711a" fill-opacity="1"><g transform="translate(58.912283, 29.716092)"><g><path d="M 13.203125 -2.546875 C 12.628906 -1.597656 11.894531 -0.878906 11 -0.390625 C 10.113281 0.0976562 9.113281 0.34375 8 0.34375 C 6.3125 0.34375 4.976562 -0.128906 4 -1.078125 C 3.03125 -2.035156 2.546875 -3.609375 2.546875 -5.796875 L 2.546875 -15.9375 C 2.546875 -16.394531 2.691406 -16.734375 2.984375 -16.953125 C 3.273438 -17.179688 3.613281 -17.296875 4 -17.296875 C 4.382812 -17.296875 4.71875 -17.179688 5 -16.953125 C 5.28125 -16.734375 5.421875 -16.394531 5.421875 -15.9375 L 5.421875 -5.875 C 5.421875 -4.601562 5.710938 -3.671875 6.296875 -3.078125 C 6.890625 -2.492188 7.660156 -2.203125 8.609375 -2.203125 C 9.953125 -2.203125 11.050781 -2.738281 11.90625 -3.8125 C 12.769531 -4.882812 13.203125 -6.414062 13.203125 -8.40625 L 13.203125 -15.9375 C 13.203125 -16.394531 13.347656 -16.734375 13.640625 -16.953125 C 13.929688 -17.179688 14.269531 -17.296875 14.65625 -17.296875 C 15.039062 -17.296875 15.375 -17.179688 15.65625 -16.953125 C 15.9375 -16.734375 16.078125 -16.394531 16.078125 -15.9375 L 16.078125 -6.109375 C 16.078125 -5.242188 16.09375 -4.523438 16.125 -3.953125 C 16.164062 -3.378906 16.210938 -2.894531 16.265625 -2.5 C 16.316406 -2.101562 16.359375 -1.773438 16.390625 -1.515625 C 16.429688 -1.253906 16.453125 -1.007812 16.453125 -0.78125 C 16.453125 -0.4375 16.332031 -0.164062 16.09375 0.03125 C 15.851562 0.238281 15.539062 0.34375 15.15625 0.34375 C 14.5 0.34375 14.019531 0.117188 13.71875 -0.328125 C 13.414062 -0.785156 13.242188 -1.523438 13.203125 -2.546875 Z M 13.203125 -2.546875 "/></g></g></g><g fill="#ff711a" fill-opacity="1"><g transform="translate(75.73345, 29.716092)"><g><path d="M 2.546875 -23.75 C 2.546875 -24.195312 2.691406 -24.535156 2.984375 -24.765625 C 3.273438 -24.992188 3.613281 -25.109375 4 -25.109375 C 4.382812 -25.109375 4.71875 -24.992188 5 -24.765625 C 5.28125 -24.535156 5.421875 -24.195312 5.421875 -23.75 L 5.421875 -14.21875 C 5.992188 -15.207031 6.703125 -15.96875 7.546875 -16.5 C 8.390625 -17.03125 9.4375 -17.296875 10.6875 -17.296875 C 11.613281 -17.296875 12.472656 -17.125 13.265625 -16.78125 C 14.054688 -16.445312 14.742188 -15.925781 15.328125 -15.21875 C 15.921875 -14.519531 16.382812 -13.632812 16.71875 -12.5625 C 17.0625 -11.488281 17.234375 -10.226562 17.234375 -8.78125 C 17.234375 -7.25 17.054688 -5.910156 16.703125 -4.765625 C 16.359375 -3.617188 15.875 -2.664062 15.25 -1.90625 C 14.625 -1.15625 13.878906 -0.59375 13.015625 -0.21875 C 12.160156 0.15625 11.222656 0.34375 10.203125 0.34375 C 9.140625 0.34375 8.203125 0.128906 7.390625 -0.296875 C 6.578125 -0.734375 5.851562 -1.347656 5.21875 -2.140625 C 5.0625 -1.140625 4.832031 -0.472656 4.53125 -0.140625 C 4.226562 0.179688 3.847656 0.34375 3.390625 0.34375 C 3.003906 0.34375 2.703125 0.226562 2.484375 0 C 2.273438 -0.226562 2.171875 -0.507812 2.171875 -0.84375 C 2.171875 -1.09375 2.1875 -1.34375 2.21875 -1.59375 C 2.25 -1.84375 2.289062 -2.164062 2.34375 -2.5625 C 2.40625 -2.957031 2.453125 -3.4375 2.484375 -4 C 2.523438 -4.5625 2.546875 -5.285156 2.546875 -6.171875 Z M 5.421875 -6.078125 C 5.421875 -5.535156 5.554688 -5.023438 5.828125 -4.546875 C 6.097656 -4.066406 6.441406 -3.648438 6.859375 -3.296875 C 7.285156 -2.953125 7.765625 -2.679688 8.296875 -2.484375 C 8.828125 -2.296875 9.34375 -2.203125 9.84375 -2.203125 C 11.21875 -2.203125 12.3125 -2.769531 13.125 -3.90625 C 13.9375 -5.050781 14.34375 -6.675781 14.34375 -8.78125 C 14.34375 -10.820312 13.945312 -12.328125 13.15625 -13.296875 C 12.363281 -14.265625 11.359375 -14.75 10.140625 -14.75 C 9.484375 -14.75 8.863281 -14.597656 8.28125 -14.296875 C 7.707031 -13.992188 7.210938 -13.535156 6.796875 -12.921875 C 6.378906 -12.316406 6.046875 -11.5625 5.796875 -10.65625 C 5.546875 -9.75 5.421875 -8.707031 5.421875 -7.53125 Z M 5.421875 -6.078125 "/></g></g></g><g fill="#ff711a" fill-opacity="1"><g transform="translate(93.097263, 29.716092)"><g><path d="M 2.546875 -23.75 C 2.546875 -24.195312 2.691406 -24.535156 2.984375 -24.765625 C 3.273438 -24.992188 3.613281 -25.109375 4 -25.109375 C 4.382812 -25.109375 4.71875 -24.992188 5 -24.765625 C 5.28125 -24.535156 5.421875 -24.195312 5.421875 -23.75 L 5.421875 -4 C 5.421875 -3.414062 5.535156 -3 5.765625 -2.75 C 5.992188 -2.5 6.242188 -2.375 6.515625 -2.375 C 6.804688 -2.375 7.015625 -2.40625 7.140625 -2.46875 C 7.265625 -2.539062 7.453125 -2.578125 7.703125 -2.578125 C 8.015625 -2.578125 8.238281 -2.472656 8.375 -2.265625 C 8.507812 -2.066406 8.578125 -1.832031 8.578125 -1.5625 C 8.578125 -1.019531 8.382812 -0.566406 8 -0.203125 C 7.613281 0.160156 6.9375 0.34375 5.96875 0.34375 C 5 0.34375 4.1875 0.0507812 3.53125 -0.53125 C 2.875 -1.125 2.546875 -2.085938 2.546875 -3.421875 Z M 2.546875 -23.75 "/></g></g></g><g fill="#ff711a" fill-opacity="1"><g transform="translate(100.388155, 29.716092)"><g><path d="M 2.640625 -22.15625 C 2.640625 -22.675781 2.828125 -23.125 3.203125 -23.5 C 3.578125 -23.882812 4.023438 -24.078125 4.546875 -24.078125 C 5.066406 -24.078125 5.519531 -23.882812 5.90625 -23.5 C 6.289062 -23.125 6.484375 -22.675781 6.484375 -22.15625 C 6.484375 -21.632812 6.289062 -21.1875 5.90625 -20.8125 C 5.519531 -20.4375 5.066406 -20.25 4.546875 -20.25 C 4.023438 -20.25 3.578125 -20.4375 3.203125 -20.8125 C 2.828125 -21.1875 2.640625 -21.632812 2.640625 -22.15625 Z M 3.125 -14.453125 L 2 -14.453125 C 1.113281 -14.453125 0.671875 -14.859375 0.671875 -15.671875 C 0.671875 -16.054688 0.78125 -16.367188 1 -16.609375 C 1.21875 -16.847656 1.550781 -16.96875 2 -16.96875 L 3.765625 -16.96875 C 4.597656 -16.96875 5.175781 -16.816406 5.5 -16.515625 C 5.832031 -16.222656 6 -15.671875 6 -14.859375 L 6 -1.015625 C 6 -0.566406 5.859375 -0.226562 5.578125 0 C 5.296875 0.226562 4.960938 0.34375 4.578125 0.34375 C 4.191406 0.34375 3.851562 0.226562 3.5625 0 C 3.269531 -0.226562 3.125 -0.566406 3.125 -1.015625 Z M 3.125 -14.453125 "/></g></g></g><g fill="#ff711a" fill-opacity="1"><g transform="translate(107.136383, 29.716092)"><g><path d="M 10 0.34375 C 8.695312 0.34375 7.539062 0.132812 6.53125 -0.28125 C 5.519531 -0.707031 4.675781 -1.304688 4 -2.078125 C 3.320312 -2.859375 2.804688 -3.789062 2.453125 -4.875 C 2.109375 -5.96875 1.9375 -7.171875 1.9375 -8.484375 C 1.9375 -9.816406 2.097656 -11.019531 2.421875 -12.09375 C 2.753906 -13.164062 3.25 -14.09375 3.90625 -14.875 C 4.5625 -15.65625 5.394531 -16.253906 6.40625 -16.671875 C 7.425781 -17.085938 8.613281 -17.296875 9.96875 -17.296875 C 10.644531 -17.296875 11.363281 -17.195312 12.125 -17 C 12.882812 -16.8125 13.570312 -16.53125 14.1875 -16.15625 C 14.8125 -15.789062 15.332031 -15.34375 15.75 -14.8125 C 16.175781 -14.28125 16.390625 -13.6875 16.390625 -13.03125 C 16.390625 -12.59375 16.269531 -12.242188 16.03125 -11.984375 C 15.789062 -11.722656 15.476562 -11.59375 15.09375 -11.59375 C 14.820312 -11.59375 14.609375 -11.644531 14.453125 -11.75 C 14.296875 -11.851562 14.160156 -11.976562 14.046875 -12.125 C 13.929688 -12.269531 13.820312 -12.4375 13.71875 -12.625 C 13.613281 -12.820312 13.492188 -13.015625 13.359375 -13.203125 C 13.046875 -13.609375 12.613281 -13.96875 12.0625 -14.28125 C 11.507812 -14.59375 10.800781 -14.75 9.9375 -14.75 C 8.175781 -14.75 6.878906 -14.179688 6.046875 -13.046875 C 5.222656 -11.921875 4.8125 -10.398438 4.8125 -8.484375 C 4.8125 -6.554688 5.242188 -5.023438 6.109375 -3.890625 C 6.984375 -2.765625 8.238281 -2.203125 9.875 -2.203125 C 10.78125 -2.203125 11.539062 -2.394531 12.15625 -2.78125 C 12.78125 -3.164062 13.25 -3.550781 13.5625 -3.9375 C 13.75 -4.132812 13.882812 -4.328125 13.96875 -4.515625 C 14.0625 -4.710938 14.164062 -4.882812 14.28125 -5.03125 C 14.394531 -5.1875 14.523438 -5.304688 14.671875 -5.390625 C 14.816406 -5.484375 15.023438 -5.53125 15.296875 -5.53125 C 15.679688 -5.53125 15.992188 -5.40625 16.234375 -5.15625 C 16.472656 -4.90625 16.59375 -4.585938 16.59375 -4.203125 C 16.59375 -3.523438 16.375 -2.90625 15.9375 -2.34375 C 15.507812 -1.78125 14.96875 -1.300781 14.3125 -0.90625 C 13.65625 -0.507812 12.941406 -0.203125 12.171875 0.015625 C 11.410156 0.234375 10.6875 0.34375 10 0.34375 Z M 10 0.34375 "/></g></g></g><g fill="#ff711a" fill-opacity="1"><g transform="translate(122.973995, 29.716092)"><g><path d="M 15.15625 -0.78125 C 15.15625 -0.4375 15.035156 -0.164062 14.796875 0.03125 C 14.566406 0.238281 14.257812 0.34375 13.875 0.34375 C 13.21875 0.34375 12.734375 0.128906 12.421875 -0.296875 C 12.117188 -0.734375 11.945312 -1.457031 11.90625 -2.46875 C 11.207031 -1.519531 10.363281 -0.8125 9.375 -0.34375 C 8.394531 0.113281 7.40625 0.34375 6.40625 0.34375 C 4.800781 0.34375 3.539062 -0.078125 2.625 -0.921875 C 1.707031 -1.773438 1.25 -3.050781 1.25 -4.75 C 1.25 -6.582031 1.851562 -7.976562 3.0625 -8.9375 C 4.28125 -9.894531 6.050781 -10.375 8.375 -10.375 C 8.894531 -10.375 9.445312 -10.335938 10.03125 -10.265625 C 10.625 -10.203125 11.25 -10.113281 11.90625 -10 L 11.90625 -11.5625 C 11.90625 -12.65625 11.550781 -13.457031 10.84375 -13.96875 C 10.144531 -14.488281 9.320312 -14.75 8.375 -14.75 C 7.519531 -14.75 6.851562 -14.617188 6.375 -14.359375 C 5.90625 -14.097656 5.554688 -13.742188 5.328125 -13.296875 C 5.117188 -12.867188 4.875 -12.585938 4.59375 -12.453125 C 4.3125 -12.316406 3.976562 -12.25 3.59375 -12.25 C 3.207031 -12.25 2.878906 -12.359375 2.609375 -12.578125 C 2.335938 -12.804688 2.203125 -13.113281 2.203125 -13.5 C 2.203125 -13.945312 2.367188 -14.390625 2.703125 -14.828125 C 3.046875 -15.273438 3.5 -15.6875 4.0625 -16.0625 C 4.632812 -16.4375 5.289062 -16.734375 6.03125 -16.953125 C 6.78125 -17.179688 7.570312 -17.296875 8.40625 -17.296875 C 9.269531 -17.296875 10.085938 -17.179688 10.859375 -16.953125 C 11.628906 -16.734375 12.304688 -16.390625 12.890625 -15.921875 C 13.472656 -15.460938 13.9375 -14.875 14.28125 -14.15625 C 14.625 -13.445312 14.796875 -12.609375 14.796875 -11.640625 L 14.796875 -6.109375 C 14.796875 -5.242188 14.8125 -4.523438 14.84375 -3.953125 C 14.875 -3.378906 14.914062 -2.894531 14.96875 -2.5 C 15.03125 -2.101562 15.078125 -1.773438 15.109375 -1.515625 C 15.140625 -1.253906 15.15625 -1.007812 15.15625 -0.78125 Z M 11.90625 -6.78125 C 11.90625 -7.070312 11.785156 -7.273438 11.546875 -7.390625 C 11.304688 -7.503906 11.039062 -7.582031 10.75 -7.625 C 10.4375 -7.675781 10.082031 -7.722656 9.6875 -7.765625 C 9.289062 -7.816406 8.851562 -7.84375 8.375 -7.84375 C 6.882812 -7.84375 5.804688 -7.582031 5.140625 -7.0625 C 4.472656 -6.539062 4.140625 -5.769531 4.140625 -4.75 C 4.140625 -3.863281 4.367188 -3.21875 4.828125 -2.8125 C 5.296875 -2.40625 5.945312 -2.203125 6.78125 -2.203125 C 7.4375 -2.203125 8.066406 -2.320312 8.671875 -2.5625 C 9.285156 -2.800781 9.832031 -3.128906 10.3125 -3.546875 C 10.789062 -3.960938 11.175781 -4.445312 11.46875 -5 C 11.757812 -5.550781 11.90625 -6.144531 11.90625 -6.78125 Z M 11.90625 -6.78125 "/></g></g></g></svg>